<svg id="svg" version="1.1" xmlns="http://www.w3.org/2000/svg" xmlns:xlink="http://www.w3.org/1999/xlink" width="400" height="399.33444259567386" viewBox="0, 0, 400,399.33444259567386"><g id="svgg"><path id="path0" d="M223.776 136.464 C 223.776 136.793,223.550 137.063,223.273 137.063 C 222.996 137.063,222.507 137.468,222.185 137.962 C 219.897 141.483,219.894 144.880,222.178 144.836 C 222.727 144.825,223.309 145.005,223.470 145.235 C 223.632 145.466,223.767 144.530,223.770 143.157 C 223.774 141.762,223.953 140.659,224.176 140.659 C 224.396 140.659,224.575 140.390,224.575 140.060 C 224.575 139.730,224.845 139.461,225.175 139.461 C 225.504 139.461,225.774 139.281,225.774 139.061 C 225.774 138.322,226.819 138.653,228.100 139.796 C 229.391 140.948,230.096 145.854,228.971 145.854 C 228.197 145.854,228.583 146.924,229.543 147.438 C 231.433 148.450,231.768 147.864,231.768 143.545 C 231.768 138.857,231.635 138.633,228.172 137.486 C 226.743 137.013,225.262 136.454,224.881 136.245 C 223.942 135.730,223.776 135.763,223.776 136.464 M178.564 137.570 C 178.266 137.865,177.685 138.234,177.274 138.390 C 176.582 138.652,176.608 138.754,177.623 139.766 C 178.676 140.817,178.710 140.979,178.506 143.978 L 178.294 147.097 179.757 146.975 L 181.219 146.853 181.334 143.169 C 181.460 139.106,179.999 136.152,178.564 137.570 M170.825 141.720 C 169.125 143.419,170.590 148.592,173.044 149.558 C 173.419 149.705,173.448 149.798,173.127 149.819 C 172.852 149.836,172.648 150.255,172.674 150.749 C 172.704 151.339,172.779 151.426,172.893 151.001 C 172.988 150.645,173.771 150.036,174.634 149.647 C 175.496 149.258,176.087 148.754,175.948 148.528 C 175.790 148.273,175.959 148.218,176.391 148.384 C 176.839 148.556,177.034 148.483,176.933 148.183 C 176.847 147.925,176.248 147.647,175.601 147.565 C 174.032 147.367,173.432 146.473,173.398 144.279 C 173.353 141.300,172.295 140.249,170.825 141.720 M223.580 155.544 C 223.419 156.369,223.140 157.043,222.959 157.043 C 222.311 157.043,221.871 158.961,221.731 162.394 C 221.633 164.776,221.650 164.817,222.804 165.063 C 223.449 165.201,224.605 165.698,225.375 166.168 C 226.144 166.638,227.140 167.186,227.589 167.386 C 228.037 167.586,228.628 168.018,228.901 168.347 C 229.174 168.676,229.924 169.163,230.568 169.430 C 231.213 169.697,231.701 170.121,231.654 170.372 C 231.607 170.624,231.821 170.829,232.130 170.829 C 232.438 170.829,232.737 170.514,232.794 170.128 C 232.851 169.742,232.769 169.506,232.613 169.602 C 231.574 170.245,231.283 168.958,231.344 163.973 C 231.416 157.940,230.250 156.363,224.975 155.359 C 224.645 155.296,224.262 154.975,224.124 154.645 C 223.963 154.263,223.766 154.589,223.580 155.544 M175.824 159.052 C 174.615 159.913,173.357 160.748,173.027 160.906 C 171.659 161.563,171.429 162.211,171.429 165.406 C 171.429 169.079,170.847 169.982,167.565 171.407 C 167.088 171.614,166.548 172.023,166.366 172.315 C 166.183 172.607,165.576 173.137,165.017 173.492 C 162.936 174.812,157.812 180.341,155.629 183.622 C 154.388 185.487,153.198 187.013,152.985 187.013 C 152.772 187.013,152.653 187.357,152.722 187.778 C 152.791 188.199,152.400 189.053,151.854 189.676 C 151.308 190.299,151.119 190.584,151.435 190.310 C 152.189 189.653,152.866 189.665,152.318 190.325 C 150.519 192.493,149.386 214.386,151.072 214.386 C 151.119 214.386,151.391 215.914,151.677 217.782 L 152.197 221.179 152.088 216.883 C 152.028 214.520,152.130 212.587,152.313 212.587 C 152.497 212.587,152.647 211.609,152.647 210.413 C 152.647 209.217,152.807 208.140,153.003 208.019 C 153.198 207.898,153.452 207.214,153.566 206.497 C 153.884 204.507,154.064 203.845,154.367 203.541 C 154.520 203.388,154.645 202.931,154.645 202.525 C 154.645 202.119,154.807 201.475,155.004 201.093 C 155.201 200.712,155.675 199.590,156.057 198.601 C 157.385 195.165,159.652 190.930,160.299 190.676 C 160.486 190.603,160.639 190.359,160.639 190.134 C 160.639 189.910,161.044 189.217,161.538 188.594 C 162.928 186.846,163.871 185.445,163.748 185.314 C 163.575 185.130,164.809 183.885,165.035 184.016 C 165.145 184.080,165.467 183.881,165.750 183.574 C 166.033 183.268,166.157 183.017,166.024 183.017 C 165.892 183.017,166.187 182.298,166.681 181.419 C 167.175 180.539,167.726 179.820,167.906 179.820 C 168.085 179.820,168.232 179.550,168.232 179.221 C 168.232 178.891,168.367 178.620,168.531 178.619 C 168.696 178.617,169.280 177.943,169.829 177.120 C 171.277 174.950,173.870 172.228,174.491 172.228 C 174.784 172.228,175.025 172.091,175.025 171.923 C 175.025 171.467,178.938 168.513,181.219 167.247 C 182.318 166.638,183.571 165.890,184.005 165.587 C 184.439 165.283,185.068 165.031,185.404 165.026 C 185.739 165.021,186.464 164.666,187.013 164.236 C 187.562 163.806,188.372 163.442,188.811 163.428 C 189.251 163.413,190.330 163.124,191.209 162.785 C 192.088 162.446,193.122 162.173,193.506 162.178 C 193.891 162.184,194.206 162.030,194.206 161.836 C 194.206 161.643,194.562 161.553,194.997 161.637 C 195.432 161.721,195.888 161.626,196.011 161.427 C 196.359 160.864,193.182 161.195,192.456 161.798 C 191.993 162.182,191.808 162.201,191.808 161.862 C 191.808 161.343,189.885 161.526,188.067 162.217 C 187.487 162.437,187.013 162.510,187.013 162.379 C 187.013 162.247,186.788 162.319,186.513 162.538 C 186.239 162.757,185.164 163.059,184.125 163.209 C 183.086 163.360,182.132 163.652,182.004 163.859 C 181.195 165.169,180.619 164.113,180.619 161.319 C 180.619 156.916,179.538 156.405,175.824 159.052 M234.104 172.128 C 234.539 172.732,235.554 173.856,236.359 174.625 C 238.731 176.892,242.055 181.704,243.812 185.415 C 244.280 186.404,244.909 187.690,245.209 188.273 C 245.509 188.857,245.754 189.675,245.754 190.092 C 245.754 190.508,245.914 191.020,246.109 191.229 C 246.614 191.770,247.723 196.543,247.729 198.202 C 247.738 200.913,247.862 202.392,248.039 201.898 C 248.381 200.947,248.783 201.404,248.742 202.697 C 248.719 203.412,248.847 204.096,249.026 204.219 C 249.204 204.342,249.376 205.241,249.407 206.217 C 249.438 207.193,249.568 208.172,249.696 208.392 C 250.512 209.792,250.433 226.024,249.606 226.851 C 249.466 226.991,249.351 227.618,249.351 228.244 C 249.351 228.870,249.193 229.694,249.001 230.075 C 248.808 230.457,248.341 231.848,247.962 233.167 C 247.583 234.486,247.128 235.850,246.950 236.200 C 246.108 237.855,247.301 237.615,248.637 235.860 C 250.315 233.658,254.545 225.535,254.545 224.517 C 254.545 224.136,254.710 223.722,254.910 223.598 C 255.111 223.474,255.396 222.655,255.544 221.778 C 255.693 220.901,255.978 220.083,256.179 219.959 C 256.379 219.835,256.543 219.240,256.543 218.638 C 256.543 218.035,256.767 217.319,257.039 217.047 C 257.721 216.365,257.700 205.314,257.016 205.086 C 256.756 204.999,256.543 204.314,256.543 203.563 C 256.543 202.812,256.364 202.198,256.144 202.198 C 255.924 202.198,255.744 201.662,255.744 201.007 C 255.744 199.833,254.656 196.593,254.131 196.204 C 253.983 196.094,253.738 195.330,253.586 194.505 C 253.434 193.681,253.176 193.007,253.011 193.007 C 252.846 193.007,252.381 192.206,251.978 191.228 C 251.574 190.250,250.953 189.126,250.597 188.731 C 250.241 188.335,249.638 187.338,249.257 186.513 C 248.876 185.689,248.382 185.015,248.158 185.015 C 247.935 185.015,247.752 184.764,247.752 184.458 C 247.752 183.941,247.254 183.316,244.169 179.959 C 243.532 179.267,243.119 178.593,243.251 178.461 C 243.382 178.329,243.308 178.222,243.085 178.222 C 242.862 178.222,242.265 177.862,241.758 177.423 C 241.251 176.983,240.961 176.623,241.113 176.623 C 241.266 176.623,241.158 176.372,240.875 176.064 C 240.592 175.757,240.288 175.574,240.200 175.657 C 240.113 175.741,239.348 175.184,238.501 174.418 C 237.654 173.653,236.790 173.027,236.580 173.027 C 236.371 173.027,235.751 172.577,235.201 172.028 C 233.860 170.687,233.115 170.755,234.104 172.128 M197.656 198.264 C 187.808 200.147,180.393 210.527,181.801 220.458 C 184.184 237.261,203.840 244.031,215.820 232.176 C 229.880 218.261,217.170 194.531,197.656 198.264 M208.192 202.268 C 209.840 203.033,211.427 203.949,211.718 204.303 C 212.008 204.658,212.510 204.846,212.833 204.722 C 213.195 204.583,213.375 204.707,213.303 205.046 C 213.239 205.348,213.388 205.557,213.633 205.512 C 213.879 205.467,214.504 205.882,215.022 206.433 C 215.717 207.173,215.784 207.367,215.275 207.172 C 214.896 207.027,214.585 206.747,214.585 206.551 C 214.585 206.354,214.374 206.194,214.116 206.194 C 213.858 206.194,214.064 206.638,214.574 207.180 C 215.084 207.723,215.685 208.053,215.910 207.914 C 216.142 207.771,216.230 207.906,216.114 208.226 C 216.000 208.537,216.318 209.690,216.820 210.789 C 217.322 211.888,217.743 212.517,217.755 212.188 C 217.767 211.858,217.505 211.067,217.173 210.430 C 216.841 209.793,216.639 209.202,216.725 209.116 C 217.109 208.732,218.723 213.041,219.097 215.447 C 221.141 228.590,208.029 239.103,195.405 234.445 C 194.196 233.999,193.438 233.556,193.720 233.462 C 194.002 233.368,194.451 233.472,194.719 233.693 C 194.986 233.914,195.924 234.202,196.803 234.334 C 198.351 234.566,198.337 234.551,196.367 233.847 C 195.248 233.448,193.661 232.725,192.840 232.240 C 192.019 231.756,191.153 231.479,190.917 231.626 C 190.680 231.772,190.599 231.709,190.736 231.487 C 190.978 231.096,188.652 228.700,188.178 228.852 C 188.050 228.893,187.945 228.706,187.945 228.437 C 187.945 227.588,186.545 225.769,186.102 226.043 C 185.831 226.210,185.777 226.047,185.953 225.589 C 186.104 225.196,186.054 224.665,185.842 224.409 C 185.630 224.153,185.163 222.525,184.805 220.790 C 182.063 207.516,195.896 196.561,208.192 202.268 M217.982 217.745 C 217.982 219.921,218.117 221.619,218.282 221.517 C 218.447 221.415,218.581 219.634,218.581 217.559 C 218.581 215.484,218.447 213.786,218.282 213.787 C 218.117 213.787,217.982 215.568,217.982 217.745 M216.693 224.584 C 216.231 225.678,215.972 226.573,216.118 226.572 C 216.451 226.570,217.939 223.001,217.705 222.767 C 217.611 222.673,217.156 223.490,216.693 224.584 M214.234 228.614 C 213.490 229.509,212.160 230.764,211.276 231.404 C 210.393 232.044,209.870 232.567,210.115 232.567 C 210.765 232.567,214.367 229.354,215.155 228.072 C 216.091 226.547,215.816 226.709,214.234 228.614 M145.455 229.394 C 145.455 229.847,145.634 230.106,145.854 229.970 C 146.074 229.834,146.254 229.464,146.254 229.147 C 146.254 228.831,146.074 228.571,145.854 228.571 C 145.634 228.571,145.455 228.942,145.455 229.394 M146.254 231.944 C 146.254 232.261,146.421 232.624,146.626 232.750 C 146.830 232.877,146.914 233.441,146.812 234.005 C 146.695 234.647,146.780 234.934,147.039 234.774 C 147.294 234.616,147.453 235.063,147.453 235.940 C 147.453 236.723,147.624 237.363,147.834 237.363 C 148.044 237.363,148.334 237.994,148.479 238.766 C 148.624 239.537,148.901 240.267,149.096 240.388 C 149.291 240.508,149.451 240.941,149.451 241.349 C 149.451 241.757,149.585 242.151,149.750 242.224 C 150.033 242.350,150.387 242.957,152.355 246.688 C 152.800 247.532,153.408 248.315,153.705 248.429 C 154.002 248.544,154.246 248.968,154.246 249.374 C 154.246 249.779,154.475 250.254,154.755 250.430 C 155.035 250.605,155.599 251.275,156.009 251.918 C 157.532 254.309,162.988 259.930,165.565 261.764 C 166.626 262.519,168.026 263.631,168.676 264.236 C 169.326 264.840,170.121 265.335,170.443 265.335 C 170.765 265.335,171.029 265.514,171.029 265.734 C 171.029 265.954,171.234 266.134,171.484 266.134 C 171.735 266.134,172.816 266.673,173.888 267.333 C 174.959 267.992,176.103 268.531,176.430 268.531 C 176.756 268.531,177.023 268.667,177.023 268.834 C 177.023 269.183,178.723 269.965,180.320 270.351 C 180.924 270.497,181.419 270.756,181.419 270.927 C 181.419 271.252,181.897 271.379,186.281 272.218 C 187.746 272.499,189.080 272.863,189.245 273.028 C 189.409 273.192,190.128 273.327,190.842 273.327 C 191.557 273.327,192.208 273.527,192.289 273.771 C 192.498 274.397,209.673 274.403,210.299 273.777 C 210.546 273.529,211.433 273.327,212.268 273.327 C 213.103 273.327,213.786 273.168,213.786 272.974 C 213.786 272.779,214.953 272.496,216.379 272.343 C 217.806 272.190,219.075 271.899,219.200 271.697 C 219.325 271.494,219.867 271.329,220.403 271.329 C 220.940 271.329,221.379 271.149,221.379 270.929 C 221.379 270.709,221.613 270.529,221.900 270.529 C 222.186 270.529,223.400 270.062,224.597 269.491 C 225.794 268.921,227.400 268.156,228.166 267.793 C 228.932 267.430,229.799 266.908,230.092 266.633 C 230.386 266.359,230.883 266.134,231.197 266.134 C 231.511 266.134,231.768 265.995,231.768 265.825 C 231.768 265.655,232.364 265.196,233.091 264.804 C 234.241 264.185,235.148 263.517,237.246 261.746 C 237.511 261.522,237.819 261.339,237.930 261.339 C 238.321 261.339,241.758 257.808,241.758 257.405 C 241.758 257.181,242.099 256.889,242.516 256.756 C 243.056 256.585,243.211 256.271,243.053 255.668 C 242.925 255.180,242.993 254.920,243.213 255.056 C 243.423 255.186,243.856 255.127,244.175 254.925 C 244.628 254.638,244.559 254.556,243.860 254.552 C 243.367 254.548,242.165 255.130,241.189 255.844 C 237.900 258.251,237.168 258.733,235.664 259.480 C 234.840 259.889,234.166 260.384,234.166 260.581 C 234.166 260.778,233.976 260.939,233.744 260.939 C 233.335 260.939,231.284 261.799,227.946 263.371 C 227.052 263.792,226.054 264.136,225.728 264.136 C 225.402 264.136,224.964 264.297,224.755 264.493 C 224.546 264.690,223.566 265.038,222.577 265.267 C 221.588 265.496,220.060 265.890,219.181 266.142 C 218.302 266.394,216.414 266.768,214.985 266.973 C 213.556 267.179,211.219 267.543,209.790 267.783 C 207.159 268.226,197.497 268.085,196.700 267.592 C 196.461 267.445,195.038 267.216,193.538 267.084 C 192.037 266.952,190.625 266.696,190.400 266.515 C 190.174 266.333,189.545 266.115,189.001 266.030 C 188.035 265.878,185.827 265.302,183.017 264.468 C 181.495 264.017,173.352 260.164,173.027 259.742 C 172.917 259.599,172.557 259.353,172.228 259.196 C 170.404 258.325,165.431 254.861,164.474 253.795 C 164.055 253.329,163.555 252.947,163.363 252.947 C 162.898 252.947,156.643 246.728,156.643 246.266 C 156.643 246.067,156.104 245.387,155.445 244.755 C 154.785 244.124,154.246 243.386,154.246 243.115 C 154.246 242.845,154.086 242.564,153.892 242.491 C 153.252 242.250,150.675 238.603,150.416 237.572 C 150.277 237.017,150.015 236.563,149.834 236.563 C 149.653 236.563,149.397 236.226,149.266 235.813 C 149.135 235.400,148.584 234.546,148.041 233.915 C 147.498 233.284,147.054 232.453,147.053 232.068 C 147.053 231.683,146.873 231.369,146.653 231.369 C 146.434 231.369,146.254 231.628,146.254 231.944 M205.994 233.981 C 204.407 234.530,204.406 234.532,205.794 234.308 C 206.563 234.183,207.364 233.921,207.572 233.724 C 208.039 233.285,207.979 233.294,205.994 233.981 " stroke="none" fill="#fab129" fill-rule="evenodd"></path><path id="path1" d="M281.019 92.905 C 280.684 93.286,280.519 94.924,280.519 97.885 L 280.519 102.298 201.998 102.298 L 123.477 102.298 123.477 97.945 C 123.477 92.823,123.769 93.107,118.495 93.107 C 114.979 93.107,114.766 93.155,114.538 94.006 C 114.405 94.500,114.315 111.988,114.338 132.867 C 114.360 153.746,114.461 170.514,114.561 170.130 C 114.662 169.745,114.911 169.431,115.114 169.431 C 115.318 169.431,115.485 168.531,115.485 167.433 C 115.485 166.334,115.656 165.435,115.866 165.435 C 116.076 165.435,116.366 164.805,116.510 164.036 C 116.654 163.267,116.932 162.637,117.127 162.637 C 117.323 162.637,117.483 162.368,117.483 162.038 C 117.483 161.708,117.654 161.439,117.864 161.439 C 118.074 161.439,118.364 160.809,118.508 160.040 C 118.652 159.271,118.930 158.641,119.125 158.641 C 119.321 158.641,119.481 158.372,119.481 158.042 C 119.481 157.712,119.657 157.443,119.873 157.443 C 120.088 157.443,120.377 156.993,120.515 156.444 C 120.653 155.894,120.926 155.445,121.122 155.445 C 121.318 155.445,121.479 155.175,121.479 154.845 C 121.479 154.515,121.651 154.246,121.863 154.246 C 123.215 154.246,123.477 150.381,123.477 130.397 L 123.477 110.689 148.052 110.689 L 172.627 110.689 172.697 113.986 C 172.740 116.018,172.827 116.596,172.924 115.492 C 173.132 113.134,173.451 112.826,176.017 112.506 C 177.666 112.300,178.243 112.050,178.430 111.462 C 178.659 110.741,179.099 110.689,185.065 110.689 C 191.183 110.689,194.093 109.989,188.688 109.818 L 186.414 109.746 188.404 109.593 C 189.499 109.508,190.525 109.227,190.685 108.969 C 191.117 108.269,217.049 108.291,217.283 108.991 C 217.383 109.292,218.272 109.518,219.514 109.560 L 221.578 109.630 219.780 109.785 C 215.771 110.131,217.357 110.692,222.176 110.632 C 225.604 110.589,227.180 110.712,227.286 111.029 C 227.370 111.282,227.659 111.489,227.928 111.489 C 228.197 111.489,228.613 111.983,228.851 112.587 C 229.285 113.685,229.286 113.684,229.328 112.188 L 229.371 110.689 254.945 110.689 L 280.519 110.689 280.519 129.717 L 280.519 148.745 281.357 148.525 C 282.538 148.217,283.317 148.606,283.317 149.506 C 283.317 149.929,283.586 150.378,283.916 150.505 C 284.246 150.631,284.515 151.056,284.515 151.449 C 284.515 151.841,284.785 152.266,285.115 152.392 C 285.445 152.519,285.714 152.975,285.714 153.407 C 285.714 153.839,286.055 154.300,286.472 154.432 C 286.941 154.581,287.328 155.199,287.489 156.058 C 287.632 156.819,287.920 157.443,288.130 157.443 C 288.340 157.443,288.511 158.072,288.511 158.841 C 288.511 159.610,288.678 160.240,288.882 160.240 C 289.085 160.240,289.334 160.554,289.435 160.939 C 289.535 161.324,289.638 146.349,289.664 127.661 C 289.718 88.105,290.294 92.298,284.811 92.323 C 282.483 92.334,281.372 92.504,281.019 92.905 M223.491 112.488 C 223.494 113.586,223.572 113.989,223.663 113.381 C 223.755 112.774,223.753 111.875,223.658 111.383 C 223.563 110.892,223.488 111.389,223.491 112.488 M179.513 118.282 C 179.982 119.032,180.619 119.361,180.619 118.853 C 180.619 118.554,179.545 117.483,179.246 117.483 C 179.118 117.483,179.239 117.842,179.513 118.282 M229.770 117.711 C 229.770 118.135,231.005 119.178,231.235 118.948 C 231.361 118.822,231.185 118.441,230.845 118.101 C 230.211 117.466,229.770 117.307,229.770 117.711 M196.603 184.557 C 196.603 184.745,195.302 185.008,193.711 185.142 C 192.121 185.275,190.757 185.571,190.681 185.799 C 190.605 186.027,190.108 186.214,189.577 186.214 C 189.046 186.214,188.611 186.379,188.611 186.582 C 188.611 186.784,188.072 187.068,187.413 187.213 C 186.753 187.358,186.214 187.642,186.214 187.844 C 186.214 188.046,185.854 188.212,185.415 188.212 C 184.975 188.212,184.615 188.372,184.615 188.568 C 184.615 188.764,184.166 189.037,183.616 189.175 C 183.067 189.313,182.617 189.602,182.617 189.818 C 182.617 190.033,182.413 190.210,182.164 190.210 C 181.914 190.210,181.293 190.659,180.784 191.209 C 180.275 191.758,179.707 192.208,179.523 192.208 C 179.019 192.208,176.224 194.939,176.224 195.431 C 176.224 195.666,175.594 196.451,174.825 197.177 C 174.056 197.902,173.427 198.700,173.427 198.948 C 173.427 199.197,173.247 199.401,173.027 199.401 C 172.807 199.401,172.627 199.738,172.627 200.151 C 172.627 200.564,172.358 201.125,172.028 201.399 C 171.698 201.672,171.429 202.144,171.429 202.447 C 171.429 202.749,171.272 202.997,171.080 202.997 C 170.888 202.997,170.616 203.716,170.476 204.595 C 170.335 205.475,170.043 206.194,169.825 206.194 C 169.608 206.194,169.431 206.808,169.431 207.559 C 169.431 208.310,169.206 208.999,168.931 209.091 C 168.552 209.218,168.432 211.318,168.432 217.783 C 168.432 224.247,168.552 226.347,168.931 226.474 C 169.206 226.565,169.431 227.075,169.431 227.606 C 169.431 228.137,169.590 228.571,169.785 228.571 C 169.980 228.571,170.260 229.381,170.409 230.370 C 170.557 231.359,170.847 232.168,171.053 232.168 C 171.260 232.168,171.429 232.438,171.429 232.767 C 171.429 233.097,171.600 233.367,171.810 233.367 C 172.020 233.367,172.308 233.990,172.451 234.752 C 172.612 235.610,172.999 236.228,173.468 236.377 C 173.885 236.509,174.226 236.888,174.226 237.218 C 174.226 238.002,180.779 244.555,181.563 244.555 C 181.893 244.555,182.278 244.915,182.418 245.355 C 182.557 245.794,182.997 246.154,183.395 246.154 C 183.792 246.154,184.342 246.424,184.615 246.753 C 184.889 247.083,185.361 247.353,185.663 247.353 C 185.966 247.353,186.214 247.509,186.214 247.701 C 186.214 247.893,186.933 248.165,187.812 248.305 C 188.691 248.446,189.411 248.739,189.411 248.956 C 189.411 249.173,189.845 249.351,190.376 249.351 C 190.907 249.351,191.404 249.538,191.481 249.767 C 191.559 250.001,193.506 250.291,195.910 250.427 C 198.269 250.561,200.200 250.823,200.200 251.009 C 200.200 251.196,200.919 251.349,201.798 251.349 C 202.677 251.349,203.397 251.196,203.397 251.009 C 203.397 250.823,205.149 250.555,207.291 250.414 C 209.433 250.273,211.247 249.977,211.321 249.754 C 211.395 249.532,211.890 249.351,212.421 249.351 C 212.952 249.351,213.387 249.194,213.387 249.002 C 213.387 248.810,214.106 248.539,214.985 248.398 C 215.864 248.257,216.583 247.965,216.583 247.748 C 216.583 247.530,216.853 247.353,217.183 247.353 C 217.512 247.353,217.782 247.185,217.782 246.980 C 217.782 246.775,218.187 246.480,218.681 246.323 C 219.176 246.167,219.871 245.706,220.227 245.297 C 220.582 244.889,221.065 244.555,221.301 244.555 C 221.933 244.555,228.571 237.836,228.571 237.196 C 228.571 236.895,228.841 236.545,229.171 236.419 C 229.500 236.292,229.770 235.824,229.770 235.377 C 229.770 234.931,229.950 234.565,230.170 234.565 C 230.390 234.565,230.569 234.296,230.569 233.966 C 230.569 233.636,230.741 233.367,230.951 233.367 C 231.161 233.367,231.450 232.737,231.595 231.968 C 231.739 231.199,232.017 230.569,232.212 230.569 C 232.408 230.569,232.567 230.300,232.567 229.970 C 232.567 229.640,232.726 229.371,232.920 229.371 C 233.115 229.371,233.399 228.202,233.552 226.773 C 233.705 225.345,233.995 224.176,234.198 224.176 C 234.406 224.176,234.565 221.410,234.565 217.782 C 234.565 214.266,234.411 211.389,234.223 211.389 C 234.034 211.389,233.763 210.265,233.619 208.891 C 233.476 207.517,233.181 206.334,232.963 206.260 C 232.745 206.187,232.567 205.693,232.567 205.162 C 232.567 204.630,232.396 204.196,232.186 204.196 C 231.976 204.196,231.686 203.566,231.542 202.797 C 231.398 202.028,231.120 201.399,230.925 201.399 C 230.729 201.399,230.569 201.129,230.569 200.799 C 230.569 200.470,230.393 200.200,230.177 200.200 C 229.962 200.200,229.681 199.785,229.554 199.278 C 229.427 198.770,228.884 198.026,228.348 197.623 C 227.811 197.221,227.373 196.569,227.373 196.175 C 227.373 195.781,227.022 195.347,226.594 195.211 C 226.166 195.075,225.707 194.623,225.574 194.206 C 225.442 193.789,224.993 193.339,224.575 193.207 C 224.158 193.074,223.706 192.616,223.570 192.187 C 223.434 191.759,223.000 191.409,222.606 191.409 C 222.213 191.409,221.553 190.959,221.140 190.410 C 220.728 189.861,219.803 189.301,219.086 189.167 C 218.369 189.032,217.782 188.762,217.782 188.567 C 217.782 188.372,217.512 188.212,217.183 188.212 C 216.853 188.212,216.583 188.040,216.583 187.830 C 216.583 187.620,215.954 187.331,215.185 187.186 C 214.416 187.042,213.786 186.764,213.786 186.569 C 213.786 186.374,213.352 186.214,212.821 186.214 C 212.289 186.214,211.793 186.027,211.717 185.799 C 211.640 185.571,210.277 185.275,208.686 185.142 C 207.096 185.008,205.794 184.745,205.794 184.557 C 205.794 184.370,203.726 184.216,201.199 184.216 C 198.671 184.216,196.603 184.370,196.603 184.557 M205.289 191.053 C 216.153 193.584,221.803 197.799,226.116 206.591 L 228.372 211.189 228.368 217.782 C 228.362 227.940,225.431 233.962,217.534 240.044 C 208.053 247.346,192.764 246.455,183.610 238.068 C 170.927 226.446,171.889 206.428,185.624 196.208 C 191.254 192.018,199.807 189.776,205.289 191.053 M198.276 201.442 C 187.338 203.282,181.533 215.741,186.954 225.738 C 194.018 238.766,214.656 235.754,217.399 221.294 C 219.690 209.211,210.264 199.425,198.276 201.442 M208.076 205.743 C 213.305 208.398,216.232 214.156,215.317 219.988 C 212.694 236.717,188.141 234.911,188.049 217.982 C 187.993 207.676,198.835 201.050,208.076 205.743 M114.340 264.635 L 114.286 290.110 107.892 290.110 C 104.376 290.110,101.499 290.266,101.499 290.458 C 101.499 290.649,100.420 290.928,99.101 291.077 C 97.782 291.226,96.703 291.519,96.703 291.728 C 96.703 291.937,96.434 292.108,96.104 292.108 C 95.774 292.108,95.504 292.280,95.504 292.489 C 95.504 292.699,94.881 292.988,94.120 293.131 C 93.261 293.292,92.643 293.679,92.494 294.148 C 92.362 294.564,91.977 294.905,91.638 294.905 C 90.864 294.905,86.894 298.902,86.530 300.047 C 86.382 300.516,86.092 300.899,85.887 300.899 C 85.682 300.899,85.514 301.169,85.514 301.499 C 85.514 301.828,85.343 302.098,85.133 302.098 C 84.923 302.098,84.633 302.727,84.489 303.497 C 84.345 304.266,84.067 304.895,83.872 304.895 C 83.676 304.895,83.516 305.150,83.516 305.461 C 83.516 305.773,83.335 306.088,83.113 306.162 C 82.891 306.236,82.594 308.049,82.453 310.191 C 82.312 312.333,82.044 314.086,81.858 314.086 C 81.298 314.086,81.475 316.098,82.089 316.712 C 82.582 317.204,99.400 317.283,204.214 317.283 L 325.768 317.283 325.482 314.186 C 325.325 312.483,325.034 311.029,324.836 310.956 C 324.638 310.882,324.476 310.208,324.476 309.457 C 324.476 308.706,324.298 308.092,324.081 308.092 C 323.863 308.092,323.571 307.373,323.430 306.494 C 323.290 305.614,323.018 304.895,322.826 304.895 C 322.634 304.895,322.478 304.555,322.478 304.139 C 322.478 303.723,322.208 303.279,321.878 303.152 C 321.548 303.026,321.279 302.569,321.279 302.137 C 321.279 301.704,320.921 301.239,320.480 301.099 C 320.040 300.959,319.680 300.568,319.680 300.230 C 319.680 299.456,315.683 295.485,314.539 295.122 C 314.070 294.973,313.686 294.684,313.686 294.479 C 313.686 294.274,313.417 294.106,313.087 294.106 C 312.757 294.106,312.488 293.929,312.488 293.714 C 312.488 293.498,312.038 293.209,311.489 293.071 C 310.939 292.933,310.490 292.660,310.490 292.464 C 310.490 292.268,310.055 292.108,309.524 292.108 C 308.993 292.108,308.498 291.930,308.425 291.712 C 308.352 291.495,307.168 291.199,305.794 291.056 C 304.421 290.913,303.297 290.641,303.297 290.453 C 303.297 290.264,300.240 290.110,296.503 290.110 L 289.710 290.110 289.664 269.431 C 289.638 258.057,289.535 249.066,289.435 249.451 C 289.334 249.835,289.085 250.150,288.882 250.150 C 288.678 250.150,288.511 250.779,288.511 251.548 C 288.511 252.318,288.351 252.947,288.155 252.947 C 287.959 252.947,287.677 253.431,287.529 254.022 C 287.381 254.614,286.937 255.378,286.544 255.721 C 286.150 256.063,285.701 256.748,285.545 257.243 C 285.389 257.737,285.093 258.142,284.888 258.142 C 284.683 258.142,284.515 258.412,284.515 258.741 C 284.515 259.071,284.348 259.341,284.143 259.341 C 283.938 259.341,283.644 259.737,283.491 260.221 C 283.022 261.698,282.254 262.239,281.328 261.743 C 280.523 261.313,280.519 261.378,280.519 275.710 L 280.519 290.110 263.513 290.110 C 253.205 290.110,246.596 290.255,246.735 290.479 C 246.860 290.682,246.646 290.931,246.259 291.032 C 245.723 291.172,245.769 291.227,246.454 291.262 C 247.440 291.313,247.721 292.108,246.753 292.108 C 246.424 292.108,246.154 292.268,246.154 292.463 C 246.154 292.658,245.524 292.936,244.755 293.081 C 243.986 293.225,243.357 293.515,243.357 293.724 C 243.357 293.934,242.907 294.106,242.358 294.106 C 241.808 294.106,241.359 294.284,241.359 294.501 C 241.359 294.718,240.639 295.011,239.760 295.151 C 238.881 295.292,238.162 295.564,238.162 295.755 C 238.162 295.947,237.802 296.104,237.363 296.104 C 236.923 296.104,236.563 296.267,236.563 296.466 C 236.563 296.665,235.664 296.952,234.565 297.103 C 233.467 297.254,232.567 297.541,232.567 297.740 C 232.567 297.939,232.028 298.102,231.369 298.102 C 230.709 298.102,230.170 298.263,230.170 298.461 C 230.170 298.658,228.911 298.946,227.373 299.101 C 225.834 299.255,224.575 299.543,224.575 299.741 C 224.575 299.938,223.871 300.100,223.010 300.100 C 222.150 300.100,221.385 300.273,221.312 300.484 C 221.239 300.695,218.976 300.992,216.284 301.144 C 213.591 301.295,211.389 301.571,211.389 301.758 C 211.389 301.945,208.062 302.098,203.996 302.098 C 199.930 302.098,196.603 301.945,196.603 301.758 C 196.603 301.571,194.401 301.295,191.708 301.144 C 189.016 300.992,186.753 300.695,186.680 300.484 C 186.607 300.273,185.842 300.100,184.982 300.100 C 184.121 300.100,183.417 299.941,183.417 299.747 C 183.417 299.553,182.248 299.269,180.819 299.116 C 179.391 298.963,178.222 298.672,178.222 298.470 C 178.222 298.267,177.772 298.102,177.223 298.102 C 176.673 298.102,176.224 297.939,176.224 297.740 C 176.224 297.541,175.325 297.254,174.226 297.103 C 173.127 296.952,172.228 296.665,172.228 296.466 C 172.228 296.267,171.778 296.104,171.229 296.104 C 170.679 296.104,170.230 295.944,170.230 295.750 C 170.230 295.555,169.421 295.274,168.432 295.126 C 167.443 294.977,166.633 294.687,166.633 294.481 C 166.633 294.275,166.364 294.106,166.034 294.106 C 165.704 294.106,165.435 293.928,165.435 293.711 C 165.435 293.494,164.715 293.201,163.836 293.061 C 162.957 292.920,162.238 292.648,162.238 292.456 C 162.238 292.265,161.878 292.108,161.439 292.108 C 160.334 292.108,160.427 291.320,161.538 291.262 C 162.223 291.227,162.269 291.172,161.733 291.032 C 161.346 290.931,161.132 290.682,161.257 290.479 C 161.396 290.255,154.012 290.110,142.481 290.110 L 123.477 290.110 123.477 275.197 C 123.477 260.198,123.133 256.144,121.863 256.144 C 121.651 256.144,121.479 255.874,121.479 255.544 C 121.479 255.215,121.299 254.945,121.079 254.945 C 120.859 254.945,120.679 254.580,120.679 254.133 C 120.679 253.687,120.410 253.218,120.080 253.092 C 119.750 252.965,119.481 252.521,119.481 252.105 C 119.481 251.689,119.315 251.349,119.113 251.349 C 118.910 251.349,118.626 250.809,118.482 250.150 C 118.337 249.491,118.053 248.951,117.850 248.951 C 117.648 248.951,117.483 248.591,117.483 248.152 C 117.483 247.712,117.317 247.353,117.115 247.353 C 116.912 247.353,116.628 246.813,116.484 246.154 C 116.339 245.495,116.055 244.955,115.852 244.955 C 115.650 244.955,115.485 244.056,115.485 242.957 C 115.485 241.858,115.317 240.959,115.113 240.959 C 114.908 240.959,114.663 240.554,114.568 240.060 C 114.472 239.565,114.370 250.624,114.340 264.635 " stroke="none" fill="#f4763c" fill-rule="evenodd"></path><path id="path2" d="M221.339 123.163 C 221.301 124.401,221.281 124.419,220.979 123.477 C 220.726 122.685,220.651 122.905,220.619 124.535 C 220.586 126.262,220.805 126.928,221.978 128.671 C 223.276 130.600,223.380 130.983,223.423 134.006 C 223.448 135.797,223.552 136.948,223.652 136.563 C 223.841 135.841,224.249 135.671,224.704 136.126 C 225.152 136.574,231.378 138.600,231.144 138.221 C 231.022 138.024,230.682 137.862,230.389 137.862 C 228.860 137.862,228.884 130.913,230.417 129.596 C 231.670 128.519,232.271 125.239,231.325 124.640 C 230.292 123.986,229.294 124.205,229.556 125.029 C 229.909 126.140,227.983 128.274,226.638 128.263 C 224.726 128.247,223.717 127.062,223.383 124.439 C 223.217 123.140,223.058 122.219,223.029 122.392 C 223.001 122.564,222.617 122.513,222.178 122.278 C 221.456 121.892,221.375 121.978,221.339 123.163 M179.445 124.144 C 178.789 124.603,178.676 124.862,179.035 125.084 C 179.552 125.403,179.440 125.609,177.722 127.501 C 176.713 128.613,174.859 128.489,173.693 127.232 C 172.899 126.375,172.588 126.267,171.931 126.618 C 171.493 126.853,171.020 126.931,170.882 126.792 C 170.743 126.654,170.630 126.705,170.631 126.906 C 170.633 127.541,172.198 129.870,172.621 129.870 C 173.182 129.870,173.141 135.703,172.573 136.764 C 172.324 137.231,171.791 137.965,171.388 138.397 C 170.986 138.829,170.744 139.322,170.850 139.493 C 170.955 139.665,170.859 139.918,170.636 140.056 C 170.413 140.194,170.233 140.791,170.236 141.382 C 170.240 142.148,170.342 142.300,170.590 141.908 C 171.121 141.070,173.016 140.982,173.074 141.793 C 173.100 142.159,173.235 141.937,173.374 141.301 C 173.738 139.632,175.554 138.344,176.482 139.097 C 176.938 139.467,177.073 139.488,176.875 139.158 C 176.688 138.848,176.850 138.550,177.297 138.379 C 178.668 137.856,178.822 137.378,178.693 134.043 C 178.568 130.811,178.597 130.688,179.779 129.450 C 182.158 126.961,181.873 122.443,179.445 124.144 M194.378 161.566 C 194.248 161.906,193.841 162.180,193.474 162.176 C 193.107 162.172,192.088 162.446,191.209 162.785 C 190.330 163.124,189.251 163.413,188.811 163.428 C 188.372 163.442,187.562 163.806,187.013 164.236 C 186.464 164.666,185.739 165.021,185.404 165.026 C 185.068 165.031,184.439 165.283,184.005 165.587 C 183.571 165.890,182.318 166.638,181.219 167.247 C 178.938 168.513,175.025 171.467,175.025 171.923 C 175.025 172.091,174.784 172.228,174.491 172.228 C 173.870 172.228,171.277 174.950,169.829 177.120 C 169.280 177.943,168.696 178.617,168.531 178.619 C 168.367 178.620,168.232 178.891,168.232 179.221 C 168.232 179.550,168.085 179.820,167.906 179.820 C 167.726 179.820,167.176 180.538,166.683 181.415 C 165.987 182.653,165.926 182.957,166.410 182.771 C 166.753 182.639,167.033 182.271,167.033 181.952 C 167.033 181.633,167.213 181.483,167.433 181.618 C 167.652 181.754,167.832 181.670,167.832 181.432 C 167.832 181.194,168.300 180.821,168.872 180.604 C 169.572 180.338,169.834 180.008,169.676 179.594 C 169.542 179.247,169.610 179.084,169.830 179.221 C 170.045 179.353,170.715 179.003,171.320 178.442 C 171.925 177.881,172.646 177.423,172.923 177.423 C 173.200 177.423,173.427 177.243,173.427 177.023 C 173.427 176.803,173.618 176.623,173.853 176.623 C 174.087 176.623,174.852 176.195,175.551 175.671 C 176.251 175.147,177.228 174.595,177.722 174.445 C 178.217 174.295,178.621 174.004,178.621 173.799 C 178.621 173.594,178.891 173.427,179.221 173.427 C 179.550 173.427,179.820 173.263,179.820 173.062 C 179.820 172.862,180.539 172.576,181.419 172.428 C 182.298 172.279,183.017 171.994,183.017 171.793 C 183.017 171.593,183.377 171.429,183.816 171.429 C 184.256 171.429,184.615 171.284,184.615 171.108 C 184.615 170.793,187.444 170.009,190.210 169.556 C 190.979 169.430,191.716 169.159,191.847 168.954 C 192.544 167.865,207.727 168.190,212.388 169.394 C 213.267 169.621,214.930 170.027,216.084 170.297 C 217.238 170.567,218.182 170.932,218.182 171.108 C 218.182 171.284,218.424 171.429,218.720 171.429 C 219.016 171.429,219.780 171.676,220.418 171.978 C 221.056 172.281,222.163 172.774,222.877 173.075 C 223.591 173.376,224.176 173.743,224.176 173.892 C 224.176 174.041,224.715 174.281,225.375 174.426 C 226.034 174.570,226.573 174.826,226.573 174.994 C 226.573 175.162,227.203 175.638,227.972 176.052 C 228.741 176.466,229.371 176.944,229.371 177.114 C 229.371 177.284,229.603 177.423,229.887 177.423 C 230.171 177.423,231.070 178.052,231.886 178.821 C 232.701 179.590,233.491 180.220,233.642 180.220 C 233.943 180.220,238.353 184.823,239.457 186.289 C 241.991 189.656,244.018 192.773,244.408 193.906 C 244.540 194.291,244.808 194.605,245.002 194.605 C 245.196 194.605,245.355 194.931,245.355 195.329 C 245.355 195.727,245.669 196.402,246.054 196.828 C 246.439 197.254,246.763 197.782,246.776 198.002 C 246.830 198.985,247.473 200.599,247.810 200.599 C 248.019 200.599,247.996 200.256,247.757 199.808 C 247.524 199.373,247.442 198.586,247.574 198.059 C 247.826 197.052,246.717 191.880,246.109 191.229 C 245.914 191.020,245.754 190.508,245.754 190.092 C 245.754 189.675,245.509 188.857,245.209 188.273 C 244.909 187.690,244.280 186.404,243.812 185.415 C 241.939 181.460,239.558 178.065,235.895 174.130 C 234.517 172.649,233.476 171.210,233.582 170.932 C 233.689 170.655,233.369 170.175,232.872 169.865 C 232.060 169.359,232.021 169.366,232.487 169.930 C 232.836 170.352,232.868 170.643,232.587 170.817 C 232.072 171.135,231.279 170.697,231.557 170.249 C 231.668 170.069,231.227 169.703,230.578 169.434 C 229.928 169.165,229.174 168.676,228.901 168.347 C 228.628 168.018,228.037 167.586,227.589 167.387 C 227.140 167.187,226.054 166.585,225.175 166.047 C 224.296 165.509,223.231 165.062,222.809 165.052 C 222.386 165.043,221.728 164.752,221.345 164.405 C 220.963 164.059,220.319 163.713,219.915 163.637 C 219.511 163.560,219.181 163.472,219.181 163.440 C 219.181 163.408,218.644 163.312,217.988 163.226 C 217.332 163.141,216.732 162.884,216.656 162.655 C 216.579 162.425,215.917 162.238,215.185 162.238 C 214.452 162.238,213.778 162.013,213.687 161.739 C 213.475 161.105,196.366 160.853,195.979 161.478 C 195.820 161.736,195.535 161.712,195.174 161.413 C 194.739 161.052,194.562 161.086,194.378 161.566 M280.800 170.030 C 280.447 172.109,280.529 238.788,280.887 240.360 L 281.159 241.558 281.457 240.060 C 281.621 239.236,281.926 238.561,282.136 238.561 C 282.346 238.561,282.517 238.202,282.517 237.762 C 282.517 237.323,282.681 236.963,282.882 236.963 C 283.082 236.963,283.374 236.206,283.531 235.280 C 283.801 233.683,283.932 233.315,284.938 231.338 C 285.170 230.882,285.464 229.623,285.593 228.541 C 285.721 227.459,285.961 226.573,286.126 226.573 C 286.291 226.573,286.523 225.989,286.641 225.275 C 286.759 224.560,287.040 223.167,287.266 222.178 C 287.492 221.189,287.685 219.561,287.695 218.561 C 287.704 217.561,287.930 216.525,288.196 216.259 C 288.870 215.585,288.902 195.114,288.231 193.756 C 287.974 193.234,287.646 191.415,287.504 189.713 C 287.362 188.011,287.080 186.517,286.879 186.393 C 286.678 186.268,286.513 185.648,286.513 185.015 C 286.513 184.382,286.359 183.768,286.170 183.651 C 285.981 183.534,285.715 182.628,285.579 181.638 C 285.443 180.648,285.177 179.519,284.986 179.130 C 284.796 178.740,284.455 178.055,284.228 177.607 C 284.001 177.159,283.687 176.035,283.531 175.110 C 283.374 174.184,283.082 173.427,282.882 173.427 C 282.681 173.427,282.517 173.103,282.517 172.707 C 282.517 172.312,282.318 171.789,282.075 171.546 C 281.832 171.302,281.506 170.502,281.352 169.767 L 281.071 168.432 280.800 170.030 M235.452 172.219 C 235.955 173.024,236.563 173.300,236.563 172.723 C 236.563 172.557,236.200 172.193,235.755 171.915 C 235.006 171.447,234.984 171.469,235.452 172.219 M122.523 181.923 C 122.337 183.190,122.026 184.324,121.831 184.444 C 121.637 184.564,121.479 185.281,121.479 186.038 C 121.479 186.794,121.313 187.413,121.111 187.413 C 120.909 187.413,120.616 189.215,120.459 191.417 C 120.303 193.620,120.019 195.518,119.828 195.637 C 119.378 195.915,119.372 214.072,119.822 214.350 C 120.010 214.466,120.290 216.410,120.445 218.669 C 120.600 220.929,120.895 222.948,121.102 223.157 C 121.309 223.366,121.479 224.029,121.479 224.632 C 121.479 225.234,121.637 225.825,121.831 225.945 C 122.026 226.065,122.337 227.200,122.523 228.466 C 122.812 230.426,122.900 229.698,123.119 223.576 C 123.687 207.720,123.247 177.004,122.523 181.923 M197.403 194.585 C 181.295 197.626,172.889 215.976,181.192 229.970 C 193.949 251.467,226.607 241.476,225.259 216.489 C 224.498 202.391,211.247 191.972,197.403 194.585 M206.013 198.349 C 214.974 200.274,221.778 208.747,221.778 217.982 C 221.778 235.935,199.570 244.941,187.263 231.979 C 173.666 217.658,186.739 194.210,206.013 198.349 M200.504 200.882 C 201.001 200.978,201.721 200.974,202.103 200.874 C 202.485 200.774,202.078 200.696,201.199 200.700 C 200.320 200.705,200.007 200.786,200.504 200.882 M196.603 201.417 C 196.166 201.713,196.327 201.750,197.203 201.554 C 198.672 201.226,198.991 200.997,197.969 201.005 C 197.547 201.008,196.933 201.194,196.603 201.417 M204.229 201.143 C 204.321 201.222,204.935 201.407,205.594 201.554 C 206.470 201.750,206.632 201.713,206.194 201.417 C 205.654 201.052,203.828 200.797,204.229 201.143 M248.046 201.834 C 248.323 202.894,248.780 203.108,248.780 202.178 C 248.780 201.760,248.569 201.337,248.311 201.239 C 248.015 201.125,247.917 201.345,248.046 201.834 M189.389 205.694 L 188.012 207.193 189.510 205.816 C 190.335 205.058,191.009 204.384,191.009 204.317 C 191.009 204.012,190.671 204.300,189.389 205.694 M198.895 206.206 C 187.884 208.971,186.392 224.540,196.712 228.980 C 206.818 233.327,216.787 223.835,212.933 213.534 C 210.937 208.198,204.448 204.811,198.895 206.206 M214.984 208.092 C 215.507 208.806,215.997 209.391,216.073 209.391 C 216.377 209.391,215.386 207.892,214.731 207.360 C 214.299 207.009,214.395 207.288,214.984 208.092 M184.317 217.582 C 184.321 218.462,184.403 218.774,184.498 218.277 C 184.594 217.780,184.590 217.061,184.490 216.679 C 184.390 216.297,184.312 216.703,184.317 217.582 M212.388 230.056 C 211.069 231.293,210.529 231.930,211.189 231.472 C 212.338 230.673,215.333 227.753,214.964 227.790 C 214.865 227.800,213.706 228.820,212.388 230.056 M199.700 234.458 C 200.634 234.543,202.163 234.543,203.097 234.458 C 204.031 234.374,203.267 234.305,201.399 234.305 C 199.530 234.305,198.766 234.374,199.700 234.458 " stroke="none" fill="#f4903c" fill-rule="evenodd"></path><path id="path3" d="M220.611 145.355 C 220.594 146.069,220.759 146.653,220.979 146.653 C 221.199 146.653,221.379 146.988,221.379 147.397 C 221.379 147.805,221.828 148.477,222.378 148.890 C 223.283 149.570,223.379 149.923,223.405 152.642 C 223.424 154.691,223.542 155.390,223.776 154.845 C 224.083 154.132,224.123 154.124,224.148 154.769 C 224.163 155.166,224.312 155.408,224.479 155.305 C 224.645 155.202,225.769 155.536,226.976 156.047 L 229.171 156.976 229.271 153.912 C 229.391 150.274,229.654 148.932,230.182 149.258 C 230.395 149.390,230.569 149.207,230.569 148.851 C 230.569 148.496,230.730 148.304,230.927 148.426 C 231.124 148.547,231.380 148.398,231.497 148.095 C 231.645 147.708,231.477 147.603,230.937 147.745 C 230.513 147.856,229.923 147.745,229.627 147.499 C 229.298 147.226,228.390 147.148,227.295 147.298 C 225.549 147.537,223.377 146.306,223.377 145.077 C 223.377 144.889,222.841 144.772,222.185 144.817 C 221.530 144.863,220.915 144.710,220.818 144.478 C 220.722 144.246,220.628 144.640,220.611 145.355 M179.021 147.018 C 177.227 147.210,176.844 147.380,176.939 147.946 C 177.024 148.453,176.873 148.569,176.374 148.377 C 175.955 148.217,175.791 148.275,175.948 148.528 C 176.087 148.754,175.503 149.254,174.649 149.640 C 172.879 150.438,172.641 151.020,172.633 154.558 C 172.629 156.417,172.472 157.128,172.028 157.298 C 171.337 157.563,171.149 161.838,171.828 161.838 C 172.048 161.838,172.228 161.701,172.228 161.533 C 172.228 161.366,172.566 161.051,172.979 160.834 C 173.392 160.617,174.744 159.765,175.984 158.941 C 177.223 158.117,178.548 157.428,178.929 157.411 C 179.346 157.392,179.422 157.300,179.121 157.178 C 177.821 156.653,178.501 150.290,180.020 148.771 C 181.091 147.700,181.988 146.282,181.319 146.718 C 181.264 146.754,180.230 146.889,179.021 147.018 M152.108 188.797 C 151.701 189.105,151.480 189.538,151.617 189.759 C 151.753 189.980,151.604 190.307,151.286 190.485 C 150.967 190.663,150.678 190.940,150.643 191.100 C 150.347 192.457,150.105 193.007,149.804 193.007 C 149.609 193.007,149.451 193.277,149.451 193.606 C 149.451 193.936,149.271 194.206,149.051 194.206 C 148.831 194.206,148.678 194.341,148.710 194.505 C 148.850 195.222,148.117 198.202,147.801 198.202 C 147.609 198.202,147.453 198.551,147.453 198.977 C 147.453 199.404,147.281 199.859,147.071 199.989 C 146.862 200.118,146.569 201.298,146.420 202.610 C 146.272 203.922,145.994 204.995,145.803 204.995 C 145.611 204.995,145.455 205.714,145.455 206.593 C 145.455 207.473,145.283 208.192,145.073 208.192 C 144.842 208.192,144.690 211.674,144.688 216.998 C 144.686 221.841,144.813 225.724,144.970 225.628 C 145.126 225.531,145.302 226.100,145.361 226.892 C 145.419 227.684,145.622 228.431,145.813 228.552 C 146.003 228.672,146.158 229.286,146.156 229.916 C 146.155 230.545,146.382 231.201,146.661 231.373 C 146.940 231.546,147.070 232.058,146.951 232.513 C 146.833 232.967,146.877 233.301,147.050 233.253 C 147.470 233.138,148.966 234.866,149.266 235.812 C 149.397 236.225,149.653 236.563,149.834 236.563 C 150.015 236.563,150.277 237.017,150.416 237.572 C 150.675 238.603,153.252 242.250,153.892 242.491 C 154.086 242.564,154.246 242.845,154.246 243.115 C 154.246 243.386,154.785 244.124,155.445 244.755 C 156.104 245.387,156.643 246.067,156.643 246.266 C 156.643 246.728,162.898 252.947,163.363 252.947 C 163.555 252.947,164.055 253.329,164.474 253.795 C 165.431 254.861,170.404 258.325,172.228 259.196 C 172.557 259.353,172.917 259.599,173.027 259.742 C 173.352 260.164,181.495 264.017,183.017 264.468 C 185.827 265.302,188.035 265.878,189.001 266.030 C 189.545 266.115,190.174 266.333,190.400 266.515 C 190.625 266.696,192.037 266.952,193.538 267.084 C 195.038 267.216,196.461 267.445,196.700 267.592 C 197.497 268.085,207.159 268.226,209.790 267.783 C 211.219 267.543,213.556 267.179,214.985 266.973 C 216.414 266.768,218.302 266.394,219.181 266.142 C 220.060 265.890,221.588 265.496,222.577 265.267 C 223.566 265.038,224.546 264.690,224.755 264.493 C 224.964 264.297,225.402 264.136,225.728 264.136 C 226.054 264.136,227.052 263.792,227.946 263.371 C 231.284 261.799,233.335 260.939,233.744 260.939 C 233.976 260.939,234.166 260.778,234.166 260.581 C 234.166 260.384,234.840 259.889,235.664 259.480 C 237.162 258.736,237.891 258.257,241.150 255.874 C 242.104 255.176,243.396 254.547,244.020 254.476 C 244.644 254.404,245.170 254.166,245.189 253.946 C 245.260 253.126,245.855 252.147,246.296 252.123 C 246.906 252.090,249.269 248.816,249.582 247.571 C 249.718 247.027,250.153 246.480,250.547 246.354 C 250.974 246.219,251.370 245.566,251.525 244.742 C 251.668 243.980,251.956 243.357,252.166 243.357 C 252.376 243.357,252.547 243.087,252.547 242.757 C 252.547 242.428,252.711 242.158,252.912 242.158 C 253.112 242.158,253.404 241.394,253.560 240.460 C 253.716 239.525,253.957 238.671,254.095 238.561 C 254.677 238.098,255.347 236.488,255.589 234.974 C 255.732 234.080,256.005 233.252,256.196 233.134 C 256.387 233.016,256.543 232.391,256.543 231.745 C 256.543 231.098,256.693 230.569,256.876 230.569 C 257.264 230.569,257.217 230.979,257.581 224.452 C 257.747 221.476,258.005 219.553,258.198 219.857 C 258.787 220.786,258.571 216.343,257.958 214.931 L 257.374 213.586 257.358 215.261 C 257.350 216.182,257.163 217.047,256.943 217.183 C 256.723 217.319,256.543 217.948,256.543 218.581 C 256.543 219.215,256.379 219.835,256.179 219.959 C 255.978 220.083,255.693 220.901,255.544 221.778 C 255.396 222.655,255.111 223.474,254.910 223.598 C 254.710 223.722,254.545 224.136,254.545 224.517 C 254.545 226.452,247.547 238.324,246.963 237.380 C 246.562 236.729,245.762 237.562,245.665 238.731 C 245.614 239.349,245.343 239.943,245.064 240.050 C 244.784 240.158,244.555 240.481,244.555 240.769 C 244.555 241.057,244.421 241.352,244.256 241.425 C 244.091 241.499,243.585 242.314,243.130 243.237 C 242.380 244.763,240.685 247.052,238.861 249.002 C 238.477 249.414,238.162 249.858,238.162 249.990 C 238.162 250.121,237.629 250.727,236.977 251.336 C 236.325 251.944,235.897 252.547,236.025 252.675 C 236.153 252.803,235.794 253.025,235.226 253.167 C 234.659 253.310,234.086 253.768,233.953 254.186 C 233.821 254.603,233.553 254.945,233.358 254.945 C 233.163 254.945,232.554 255.395,232.004 255.944 C 231.455 256.494,230.826 256.943,230.606 256.943 C 230.386 256.943,229.787 257.348,229.276 257.842 C 228.764 258.337,227.677 259.084,226.860 259.503 C 226.043 259.923,225.375 260.417,225.375 260.602 C 225.375 260.788,225.088 260.939,224.737 260.939 C 224.117 260.939,221.780 262.086,221.379 262.587 C 221.269 262.724,220.555 262.972,219.793 263.137 C 219.031 263.303,218.042 263.623,217.596 263.849 C 217.149 264.076,216.475 264.410,216.097 264.593 C 215.720 264.775,214.412 265.042,213.189 265.186 C 211.967 265.330,210.871 265.602,210.754 265.791 C 210.638 265.979,209.744 266.134,208.768 266.134 C 207.792 266.134,206.993 266.314,206.993 266.533 C 206.993 266.781,204.862 266.933,201.399 266.933 C 198.322 266.933,195.804 266.771,195.804 266.572 C 195.804 266.373,194.950 266.115,193.906 265.997 C 190.424 265.605,186.613 264.807,186.613 264.469 C 186.613 264.286,186.174 264.136,185.638 264.136 C 185.101 264.136,184.556 263.964,184.426 263.754 C 184.296 263.544,183.897 263.484,183.538 263.622 C 183.102 263.789,182.982 263.717,183.175 263.405 C 183.367 263.094,183.120 262.937,182.441 262.937 C 181.879 262.937,181.419 262.757,181.419 262.537 C 181.419 262.318,181.059 262.138,180.619 262.138 C 180.180 262.138,179.820 261.978,179.820 261.782 C 179.820 261.586,179.338 261.304,178.748 261.156 C 178.158 261.008,177.184 260.494,176.583 260.014 C 175.981 259.534,174.727 258.691,173.794 258.142 C 172.862 257.592,171.453 256.500,170.665 255.714 C 169.876 254.928,169.073 254.268,168.881 254.248 C 168.688 254.228,168.216 253.733,167.832 253.147 C 167.448 252.561,166.998 252.112,166.833 252.148 C 166.668 252.184,166.227 251.748,165.854 251.179 C 165.480 250.609,165.053 250.265,164.905 250.413 C 164.757 250.561,164.635 250.492,164.635 250.259 C 164.635 250.026,164.100 249.262,163.446 248.561 C 161.986 246.999,158.641 242.016,158.641 241.405 C 158.641 241.160,158.465 240.959,158.249 240.959 C 158.034 240.959,157.745 240.509,157.607 239.960 C 157.469 239.411,157.196 238.961,157.000 238.961 C 156.804 238.961,156.643 238.584,156.643 238.122 C 156.643 237.285,155.521 234.544,155.024 234.166 C 154.776 233.977,154.115 231.323,154.061 230.298 C 154.047 230.039,153.903 229.694,153.741 229.532 C 153.579 229.370,153.447 228.728,153.447 228.105 C 153.447 227.483,153.283 226.973,153.082 226.973 C 152.882 226.973,152.639 225.939,152.542 224.675 C 152.311 221.658,151.444 215.346,151.155 214.585 C 150.630 213.198,150.560 212.520,150.381 206.993 C 150.133 199.402,151.004 191.908,152.318 190.325 C 152.629 189.951,152.606 189.810,152.235 189.810 C 151.891 189.810,151.961 189.548,152.448 189.011 C 153.288 188.083,153.158 188.002,152.108 188.797 M213.786 205.647 C 213.786 205.935,215.398 207.393,215.715 207.393 C 215.830 207.393,215.501 206.943,214.985 206.394 C 214.013 205.359,213.786 205.218,213.786 205.647 M216.583 209.056 C 216.583 209.190,216.852 209.814,217.180 210.444 C 217.509 211.073,217.778 212.083,217.780 212.687 C 217.781 213.292,217.962 213.786,218.182 213.786 C 218.420 213.786,218.581 215.310,218.581 217.559 C 218.581 219.643,218.403 221.442,218.182 221.578 C 217.962 221.714,217.782 222.168,217.782 222.587 C 217.782 223.473,216.612 226.132,215.884 226.902 C 215.609 227.192,215.385 227.575,215.385 227.751 C 215.385 228.348,211.197 232.186,210.290 232.421 C 209.795 232.549,209.391 232.814,209.391 233.010 C 209.391 233.206,209.067 233.367,208.671 233.367 C 208.276 233.367,207.727 233.591,207.453 233.866 C 206.708 234.611,196.284 234.556,194.868 233.799 C 194.285 233.487,193.705 233.335,193.579 233.460 C 193.220 233.820,197.389 235.228,199.679 235.521 C 212.261 237.128,222.871 223.761,218.300 212.061 C 217.674 210.458,216.583 208.549,216.583 209.056 M242.957 255.611 C 242.957 255.904,243.118 256.144,243.314 256.144 C 243.510 256.144,243.763 255.904,243.875 255.611 C 243.988 255.318,243.827 255.078,243.518 255.078 C 243.210 255.078,242.957 255.318,242.957 255.611 " stroke="none" fill="#fcc412" fill-rule="evenodd"></path><path id="path4" d="M194.106 108.559 C 192.183 108.649,190.609 108.886,190.609 109.086 C 190.609 109.285,189.665 109.515,188.511 109.596 L 186.414 109.742 188.688 109.816 C 189.938 109.857,191.073 110.070,191.209 110.290 C 191.531 110.811,217.074 110.836,217.602 110.315 C 217.811 110.109,218.791 109.871,219.780 109.785 L 221.578 109.630 219.514 109.560 C 218.378 109.522,217.386 109.302,217.310 109.072 C 217.161 108.626,200.529 108.259,194.106 108.559 M223.483 113.809 C 223.431 115.734,223.208 117.339,222.981 117.415 C 222.756 117.489,222.674 117.715,222.798 117.916 C 222.923 118.117,222.824 118.282,222.579 118.282 C 221.688 118.282,220.518 121.744,220.929 123.166 L 221.307 124.476 221.343 123.163 C 221.375 121.978,221.456 121.892,222.178 122.278 C 222.617 122.513,223.005 122.564,223.040 122.392 C 223.074 122.219,223.226 122.977,223.377 124.076 L 223.651 126.074 223.716 123.477 C 223.838 118.631,229.371 118.098,229.371 122.932 C 229.371 123.826,229.560 124.276,229.937 124.276 C 230.249 124.276,230.789 124.385,231.136 124.518 C 232.452 125.023,231.984 120.195,230.569 118.681 C 229.644 117.690,229.371 117.027,229.371 115.770 C 229.371 113.797,228.591 111.489,227.925 111.489 C 227.658 111.489,227.379 111.336,227.306 111.151 C 227.233 110.965,226.364 110.707,225.375 110.577 L 223.576 110.341 223.483 113.809 M178.302 111.751 C 178.258 112.005,177.278 112.340,176.124 112.495 C 173.468 112.852,173.027 113.225,173.027 115.111 C 173.027 116.808,171.587 119.626,170.928 119.218 C 170.690 119.071,170.623 119.147,170.774 119.391 C 170.921 119.630,170.859 119.938,170.636 120.076 C 169.949 120.500,170.129 127.194,170.851 128.095 C 171.452 128.845,171.458 128.841,171.051 127.998 C 170.431 126.716,170.333 126.807,172.573 126.578 C 173.216 126.513,173.328 126.113,173.386 123.691 C 173.474 119.977,174.648 118.812,177.123 119.980 C 178.257 120.515,178.607 121.313,178.616 123.386 C 178.621 124.688,178.626 124.691,179.617 124.041 C 180.572 123.415,180.628 123.427,180.990 124.332 C 181.287 125.074,181.372 124.721,181.389 122.677 C 181.409 120.229,181.331 120.003,180.032 118.741 C 178.732 117.478,178.646 117.227,178.518 114.345 C 178.444 112.664,178.346 111.497,178.302 111.751 M172.540 132.167 C 172.738 136.177,172.905 136.570,172.967 133.167 C 173.000 131.354,172.892 129.870,172.727 129.870 C 172.562 129.869,172.478 130.903,172.540 132.167 M281.219 148.527 C 280.573 148.696,280.523 149.550,280.567 159.770 C 280.593 165.852,280.751 170.290,280.919 169.630 C 281.209 168.490,281.226 168.481,281.271 169.454 C 281.297 170.016,281.583 170.826,281.905 171.252 C 282.228 171.679,282.498 172.343,282.505 172.727 C 282.512 173.112,282.681 173.427,282.882 173.427 C 283.082 173.427,283.374 174.184,283.531 175.110 C 283.687 176.035,283.973 177.114,284.165 177.507 C 284.358 177.900,284.699 178.585,284.924 179.030 C 285.149 179.474,285.443 180.648,285.579 181.638 C 285.715 182.628,285.981 183.534,286.170 183.651 C 286.359 183.768,286.513 184.382,286.513 185.015 C 286.513 185.648,286.678 186.268,286.879 186.393 C 287.080 186.517,287.362 188.011,287.504 189.713 C 287.646 191.415,287.974 193.234,288.231 193.756 C 288.902 195.114,288.870 215.585,288.196 216.259 C 287.930 216.525,287.704 217.561,287.695 218.561 C 287.685 219.561,287.492 221.189,287.266 222.178 C 287.040 223.167,286.759 224.560,286.641 225.275 C 286.523 225.989,286.291 226.573,286.126 226.573 C 285.961 226.573,285.721 227.459,285.593 228.541 C 285.464 229.623,285.170 230.882,284.938 231.338 C 283.932 233.315,283.801 233.683,283.531 235.280 C 283.374 236.206,283.082 236.963,282.882 236.963 C 282.681 236.963,282.517 237.323,282.517 237.762 C 282.517 238.202,282.346 238.561,282.136 238.561 C 281.926 238.561,281.621 239.236,281.457 240.060 L 281.159 241.558 280.887 240.360 C 280.737 239.700,280.593 244.145,280.567 250.236 C 280.521 260.969,280.544 261.324,281.328 261.743 C 282.254 262.239,283.022 261.698,283.491 260.221 C 283.644 259.737,283.938 259.341,284.143 259.341 C 284.348 259.341,284.515 259.071,284.515 258.741 C 284.515 258.412,284.683 258.142,284.888 258.142 C 285.093 258.142,285.389 257.737,285.545 257.243 C 285.701 256.748,286.150 256.063,286.544 255.721 C 286.937 255.378,287.381 254.614,287.529 254.022 C 287.677 253.431,287.959 252.947,288.155 252.947 C 288.351 252.947,288.511 252.333,288.511 251.582 C 288.511 250.831,288.736 250.142,289.011 250.050 C 289.407 249.918,289.510 240.591,289.510 205.195 C 289.510 169.799,289.407 160.472,289.011 160.340 C 288.736 160.248,288.511 159.559,288.511 158.808 C 288.511 158.057,288.340 157.443,288.130 157.443 C 287.920 157.443,287.632 156.819,287.489 156.058 C 287.328 155.199,286.941 154.581,286.472 154.432 C 286.055 154.300,285.714 153.839,285.714 153.407 C 285.714 152.975,285.445 152.519,285.115 152.392 C 284.785 152.266,284.515 151.841,284.515 151.449 C 284.515 151.056,284.246 150.631,283.916 150.505 C 283.586 150.378,283.317 149.929,283.317 149.506 C 283.317 148.909,282.359 148.041,281.985 148.298 C 281.948 148.324,281.603 148.427,281.219 148.527 M122.762 152.448 C 122.497 153.437,122.100 154.246,121.880 154.246 C 121.659 154.246,121.479 154.515,121.479 154.845 C 121.479 155.175,121.318 155.445,121.122 155.445 C 120.926 155.445,120.653 155.894,120.515 156.444 C 120.377 156.993,120.088 157.443,119.873 157.443 C 119.657 157.443,119.481 157.712,119.481 158.042 C 119.481 158.372,119.321 158.641,119.125 158.641 C 118.930 158.641,118.652 159.271,118.508 160.040 C 118.364 160.809,118.074 161.439,117.864 161.439 C 117.654 161.439,117.483 161.708,117.483 162.038 C 117.483 162.368,117.323 162.637,117.127 162.637 C 116.932 162.637,116.654 163.267,116.510 164.036 C 116.366 164.805,116.076 165.435,115.866 165.435 C 115.656 165.435,115.485 166.319,115.485 167.399 C 115.485 168.616,115.294 169.427,114.985 169.530 C 114.590 169.662,114.486 177.152,114.486 205.195 C 114.486 233.238,114.590 240.728,114.985 240.859 C 115.294 240.962,115.485 241.774,115.485 242.990 C 115.485 244.071,115.650 244.955,115.852 244.955 C 116.055 244.955,116.339 245.495,116.484 246.154 C 116.628 246.813,116.912 247.353,117.115 247.353 C 117.317 247.353,117.483 247.712,117.483 248.152 C 117.483 248.591,117.648 248.951,117.850 248.951 C 118.053 248.951,118.337 249.491,118.482 250.150 C 118.626 250.809,118.910 251.349,119.113 251.349 C 119.315 251.349,119.481 251.689,119.481 252.105 C 119.481 252.521,119.750 252.965,120.080 253.092 C 120.410 253.218,120.679 253.687,120.679 254.133 C 120.679 254.580,120.859 254.945,121.079 254.945 C 121.299 254.945,121.479 255.215,121.479 255.544 C 121.479 255.874,121.653 256.144,121.866 256.144 C 122.079 256.144,122.516 256.998,122.837 258.042 C 123.364 259.756,123.415 257.904,123.364 238.961 C 123.333 227.423,123.211 220.859,123.092 224.376 C 122.904 229.977,122.834 230.484,122.531 228.466 C 122.340 227.200,122.026 226.065,121.831 225.945 C 121.637 225.825,121.479 225.234,121.479 224.632 C 121.479 224.029,121.309 223.366,121.102 223.157 C 120.895 222.948,120.600 220.929,120.445 218.669 C 120.290 216.410,120.010 214.466,119.822 214.350 C 119.372 214.072,119.378 195.915,119.828 195.637 C 120.019 195.518,120.303 193.620,120.459 191.417 C 120.616 189.215,120.909 187.413,121.111 187.413 C 121.313 187.413,121.479 186.794,121.479 186.038 C 121.479 185.281,121.637 184.564,121.831 184.444 C 122.026 184.324,122.340 183.190,122.531 181.923 C 122.834 179.906,122.904 180.413,123.092 186.014 C 123.211 189.536,123.346 183.032,123.392 171.528 C 123.439 160.045,123.424 150.649,123.360 150.649 C 123.295 150.649,123.026 151.459,122.762 152.448 M197.802 191.086 C 183.142 194.186,174.038 205.256,174.726 219.145 C 176.180 248.511,216.047 254.829,227.121 227.448 C 228.337 224.443,228.364 224.231,228.368 217.782 L 228.372 211.189 226.116 206.591 C 220.714 195.581,208.409 188.842,197.802 191.086 M209.054 195.379 C 225.804 201.003,230.927 222.091,218.582 234.600 C 201.982 251.420,173.697 236.280,178.469 213.130 C 181.282 199.484,195.941 190.977,209.054 195.379 M198.402 204.545 C 182.684 208.741,185.561 231.617,201.798 231.554 C 219.373 231.485,220.222 205.372,202.682 204.397 C 200.987 204.302,199.061 204.369,198.402 204.545 M206.799 207.038 C 216.413 211.557,215.891 225.608,205.970 229.353 C 194.202 233.796,184.425 219.121,192.902 209.737 C 196.289 205.989,202.146 204.851,206.799 207.038 M217.902 217.782 C 217.902 218.991,217.977 219.486,218.068 218.881 C 218.160 218.277,218.160 217.288,218.068 216.683 C 217.977 216.079,217.902 216.573,217.902 217.782 M161.257 290.479 C 161.132 290.682,161.346 290.931,161.733 291.032 C 162.269 291.172,162.223 291.227,161.538 291.262 C 160.427 291.320,160.334 292.108,161.439 292.108 C 161.878 292.108,162.238 292.265,162.238 292.456 C 162.238 292.648,162.957 292.920,163.836 293.061 C 164.715 293.201,165.435 293.494,165.435 293.711 C 165.435 293.928,165.704 294.106,166.034 294.106 C 166.364 294.106,166.633 294.275,166.633 294.481 C 166.633 294.687,167.443 294.977,168.432 295.126 C 169.421 295.274,170.230 295.555,170.230 295.750 C 170.230 295.944,170.679 296.104,171.229 296.104 C 171.778 296.104,172.228 296.267,172.228 296.466 C 172.228 296.665,173.127 296.952,174.226 297.103 C 175.325 297.254,176.224 297.541,176.224 297.740 C 176.224 297.939,176.673 298.102,177.223 298.102 C 177.772 298.102,178.222 298.267,178.222 298.470 C 178.222 298.672,179.391 298.963,180.819 299.116 C 182.248 299.269,183.417 299.553,183.417 299.747 C 183.417 299.941,184.121 300.100,184.982 300.100 C 185.842 300.100,186.607 300.273,186.680 300.484 C 186.753 300.695,189.016 300.992,191.708 301.144 C 194.401 301.295,196.603 301.571,196.603 301.758 C 196.603 301.945,199.930 302.098,203.996 302.098 C 208.062 302.098,211.389 301.945,211.389 301.758 C 211.389 301.571,213.591 301.295,216.284 301.144 C 218.976 300.992,221.239 300.695,221.312 300.484 C 221.385 300.273,222.150 300.100,223.010 300.100 C 223.871 300.100,224.575 299.938,224.575 299.741 C 224.575 299.543,225.834 299.255,227.373 299.101 C 228.911 298.946,230.170 298.658,230.170 298.461 C 230.170 298.263,230.709 298.102,231.369 298.102 C 232.028 298.102,232.567 297.939,232.567 297.740 C 232.567 297.541,233.467 297.254,234.565 297.103 C 235.664 296.952,236.563 296.665,236.563 296.466 C 236.563 296.267,236.923 296.104,237.363 296.104 C 237.802 296.104,238.162 295.947,238.162 295.755 C 238.162 295.564,238.881 295.292,239.760 295.151 C 240.639 295.011,241.359 294.718,241.359 294.501 C 241.359 294.284,241.808 294.106,242.358 294.106 C 242.907 294.106,243.357 293.934,243.357 293.724 C 243.357 293.515,243.986 293.225,244.755 293.081 C 245.524 292.936,246.154 292.658,246.154 292.463 C 246.154 292.268,246.424 292.108,246.753 292.108 C 247.721 292.108,247.440 291.313,246.454 291.262 C 245.769 291.227,245.723 291.172,246.259 291.032 C 246.646 290.931,246.860 290.682,246.735 290.479 C 246.428 289.983,161.564 289.983,161.257 290.479 " stroke="none" fill="#f4843c" fill-rule="evenodd"></path></g>
</svg>